<!-- Generator: Adobe Illustrator 25.0.0, SVG Export Plug-In  -->
<svg version="1.1" xmlns="http://www.w3.org/2000/svg" xmlns:xlink="http://www.w3.org/1999/xlink" x="0px" y="0px" width="65.48px"
	 height="65.48px" viewBox="0 0 65.48 65.48" style="overflow:visible;enable-background:new 0 0 65.48 65.48;"
	 xml:space="preserve">
<style type="text/css">
	.st0{fill:#FF5B00;}
	.st1{fill:#FFFFFF;}
</style>
<defs>
</defs>
<path class="st0" d="M32.74,0C14.66,0,0,14.66,0,32.74c0,18.08,14.66,32.74,32.74,32.74c18.08,0,32.74-14.66,32.74-32.74
	C65.48,14.66,50.82,0,32.74,0z M32.74,59.6C17.9,59.6,5.88,47.57,5.88,32.74c0-14.83,12.02-26.86,26.86-26.86
	c14.83,0,26.86,12.03,26.86,26.86C59.6,47.57,47.57,59.6,32.74,59.6z"/>
<g>
	<path class="st0" d="M5.82,36.26c0,0,2.45-5.29,7.23-8.58c0,0,0.13-0.71-3.61,0.97c0,0,3.23-7.1,11.68-10c0,0,0.13-3.68,4.77-8.06
		c0,0,2.19,2.06,2.55,3.68c0,0,2.42-1.81,5.52-0.84c0,0-1.42,3.55-1.74,4.32c0,0,2.58,0.58,7.23,5.68L51.5,27.8
		c0,0-1.61,8.13-10.9,8.13c0,0-10.97-0.52-14.84,3.81l4.19-0.9c0,0-4.11,7.22-0.97,12.97c1.65,3.01,5.48,5.52,12.52,6.58
		c0,0-12.71,5.42-24.77-3.61C16.72,54.77,7.11,48.45,5.82,36.26z"/>
	<path class="st1" d="M31.23,21.12l6.65,3.31C37.89,24.43,33.99,26.67,31.23,21.12z"/>
</g>
</svg>
