<!-- Generator: Adobe Illustrator 25.0.0, SVG Export Plug-In  -->
<svg version="1.1" xmlns="http://www.w3.org/2000/svg" xmlns:xlink="http://www.w3.org/1999/xlink" x="0px" y="0px" width="69.48px"
	 height="69.48px" viewBox="0 0 69.48 69.48" style="overflow:visible;enable-background:new 0 0 69.48 69.48;"
	 xml:space="preserve">
<style type="text/css">
	.st0{fill:none;stroke:#FFEE63;stroke-width:4;stroke-miterlimit:10;}
	.st1{fill:#FFEE63;}
</style>
<defs>
</defs>
<circle class="st0" cx="34.74" cy="34.74" r="32.74"/>
<path class="st1" d="M7.64,37.22c0,0,16.26,14.32,26.13,26.18C33.77,63.4,18.53,54.11,7.64,37.22z"/>
<path class="st1" d="M55.27,15.74c-0.97-1.03-2.53,0.02-2.97,0.45l-11.1,11.1c0,0-1.35,1.35-4.18,0.58c0,0-6.94-2.65-8.4-2.16
	c-1.22,0.41-1.45-0.16-3.08,1.9l17.76,17.81c0,0,1.9-0.65,1.97-3.39c0.06-2.74-2.23-8.1-2.23-8.1s-0.97-2.68,0.81-4.55
	s10.97-10.94,10.97-10.94S56.24,16.77,55.27,15.74z M41.92,44.03l-0.16-0.16c0,0,2.58-2.06-1.84-12.71c0,0-10.54-4.4-12.78-1.96
	l-0.21-0.21c0,0,1.85-2.81,13.36,1.71C40.29,30.7,44.57,41.54,41.92,44.03z"/>
<path class="st1" d="M41.66,45.06c0,0-2.4,4.86-4.74,8.27c0,0,2.15-5.03,4.45-8.56l-1.62-1.62c0,0-4.28,9.82-7.39,14.98
	c0,0,4.25-9.99,7.26-15.11l-2.13-2.13c0,0-5.65,9.62-8.92,13.97c0,0,4.86-8.76,8.71-14.18l-1.43-1.43c0,0-5.1,7.72-7.52,10.35
	c0,0,4.43-7.19,7.35-10.52l-1.31-1.31c0,0-4.02,4.85-7.26,7.64c0,0,3.22-4.32,7.05-7.84l-1.81-1.81c0,0-7.8,7.25-12.42,10.22
	c0,0,7.31-6.7,12.27-10.38l-1.68-1.68c0,0-8.36,6.16-12.64,8.41c0,0,8.73-6.58,12.47-8.58l-1.03-1.03c0,0-2.93,2.15-6.6,3.99
	c0,0,2.98-2.49,6.36-4.23L27.3,30.7c0,0-8.21,5.48-13.2,7.83c0,0,6.03-4.28,13.05-7.97l-1.21-1.21c0,0-9.71,5.87-14.75,7.88
	c0,0,10.21-6,14.59-8.03l-0.73-0.73L8.18,36.74c0,0,18.05,16.79,26.08,26.18l8.37-16.89L41.66,45.06z"/>
<path class="st1" d="M42.78,48.64"/>
<path class="st1" d="M52.63,49.09"/>
</svg>
